<svg width="200" height="51" viewBox="0 0 200 51" fill="none" xmlns="http://www.w3.org/2000/svg">
<rect x="2" y="2" width="196" height="47" stroke="white" stroke-width="4"/>
<path d="M29.0505 20C29.0505 12.62 20.5185 12.8 20.5185 12.8H12.3105C12.0945 12.8 11.9505 12.944 11.9505 13.088V37.712C11.9505 37.856 12.0945 38 12.3105 38H20.5185C22.2105 38 29.4105 37.676 29.4105 30.656C29.4105 30.656 29.5545 26.768 25.5585 25.4C27.4665 24.608 29.0505 22.952 29.0505 20ZM16.7385 23.06V17.3H20.5185C20.5185 17.3 24.2265 17.264 24.2265 20.288C24.2265 23.06 20.5185 23.06 20.5185 23.06H16.7385ZM20.5185 33.392H16.7385V27.776H20.5185C20.5185 27.776 24.5865 27.56 24.5865 30.548C24.5865 32.96 22.1025 33.392 20.5185 33.392ZM47.2139 33.32H38.4299V13.088C38.4299 12.944 38.2859 12.8 38.1059 12.8H33.9659C33.7499 12.8 33.6059 12.944 33.6059 13.088V37.712C33.6059 37.856 33.7499 38 33.9659 38H47.2139C47.4299 38 47.5739 37.856 47.5739 37.712V33.608C47.5739 33.464 47.4299 33.32 47.2139 33.32ZM60.3891 31.304C65.6091 31.304 69.8931 27.056 69.8931 21.872C69.8931 16.724 65.6091 12.44 60.3891 12.44C55.1691 12.44 50.8851 16.724 50.8851 21.872C50.8851 27.056 55.1691 31.304 60.3891 31.304ZM60.3891 17.084C63.0171 17.084 65.1051 19.208 65.1051 21.872C65.1051 24.572 63.0171 26.66 60.3891 26.66C57.7971 26.66 55.6731 24.572 55.6731 21.872C55.6731 19.208 57.7971 17.084 60.3891 17.084ZM68.7771 37.712V33.644C68.7771 33.5 68.6331 33.356 68.4171 33.356H52.1811C51.9651 33.356 51.8211 33.5 51.8211 33.644V37.712C51.8211 37.856 51.9651 38 52.1811 38H68.4171C68.6331 38 68.7771 37.856 68.7771 37.712ZM86.5141 33.68C82.1941 33.68 78.7021 30.512 78.7021 25.4C78.7021 20.612 81.6541 17.12 86.5141 17.12C88.6741 17.12 90.6181 18.02 92.0581 19.46C92.2021 19.568 92.4181 19.568 92.5621 19.46L95.4421 16.58C95.5861 16.472 95.5861 16.256 95.4421 16.148C93.2101 13.844 90.0421 12.44 86.5141 12.44C79.0981 12.44 73.8061 17.804 73.8061 25.4C73.8061 33.32 79.5301 38.36 86.5141 38.36C90.0421 38.36 93.2101 36.956 95.4421 34.688C95.5861 34.58 95.5861 34.364 95.4421 34.256L92.5621 31.34C92.4181 31.232 92.2021 31.232 92.0581 31.34C90.6181 32.78 88.6741 33.68 86.5141 33.68ZM109.602 25.616L119.646 13.268C119.862 13.052 119.682 12.8 119.358 12.8H114.21C114.138 12.8 113.958 12.872 113.922 12.908L104.454 24.536V13.088C104.454 12.944 104.31 12.8 104.13 12.8H99.9902C99.7742 12.8 99.6302 12.944 99.6302 13.088V37.712C99.6302 37.856 99.7742 38 99.9902 38H104.13C104.31 38 104.454 37.856 104.454 37.712V31.016C105.138 30.332 105.786 29.504 106.398 28.82L113.742 37.892C113.778 37.928 113.958 38 114.03 38H119.43C119.754 38 119.934 37.748 119.718 37.532L109.602 25.616ZM127.368 12.8H123.264C123.048 12.8 122.904 12.944 122.904 13.088V37.712C122.904 37.856 123.048 38 123.264 38H127.368C133.632 38 142.128 36.164 142.128 25.4C142.128 14.204 133.524 12.8 127.368 12.8ZM127.728 33.356V17.408C133.2 17.12 137.268 19.424 137.268 25.4C137.268 33.176 130.788 33.5 127.728 33.356ZM151.564 17.372H163.192C163.408 17.372 163.552 17.228 163.552 17.084V13.088C163.552 12.944 163.408 12.8 163.192 12.8H147.1C146.884 12.8 146.74 12.944 146.74 13.088V37.712C146.74 37.856 146.884 38 147.1 38H163.516C163.732 38 163.876 37.856 163.876 37.712V33.608C163.876 33.464 163.732 33.32 163.516 33.32H151.564V27.632H161.464C161.644 27.632 161.788 27.488 161.788 27.344V23.348C161.788 23.204 161.644 23.06 161.464 23.06H151.564V17.372ZM174.456 25.4L165.816 37.532C165.636 37.748 165.78 38 166.068 38H171.108C171.18 38 171.36 37.964 171.396 37.892L177.408 29.504L183.384 37.892C183.42 37.964 183.6 38 183.672 38H188.712C189.036 38 189.18 37.748 189 37.532C186.12 33.536 183.24 29.396 180.324 25.4L189 13.268C189.18 13.052 189.036 12.8 188.712 12.8H183.672C183.6 12.8 183.42 12.836 183.384 12.908L177.408 21.296L171.396 12.908C171.36 12.836 171.18 12.8 171.108 12.8H166.068C165.78 12.8 165.636 13.052 165.816 13.268C168.696 17.264 171.576 21.404 174.456 25.4Z" fill="white"/>
</svg>
